# xmcd
#
# Track frame offsets:
#	150
#	17740
#	30487
#	41762
#	65495
#	80079
#	100812
#	117740
#	132942
#	152942
#	173855
#	190410
#
# Disc length: 2680 seconds
#
# Revision: 1
# Processed by: cddbd v1.4PL0 Copyright (c) Steve Scherf et al.
# Submitted via: audiograbber 1.81.03
#
DISCID=a70a760c
DTITLE=Tony Williamson Trio - Christmas at Doobie Shea
DYEAR=1997
DGENRE=Bluegrass
TTITLE0=Santa Claus is Coming to Town
TTITLE1=It Came Upon a Midnight Clear
TTITLE2=Let it Snow! Let it Snow! Let it Snow! 
TTITLE3=What Child is This
TTITLE4=Jingle Bell Rock
TTITLE5=We Three Kings
TTITLE6=Winter Wonderland
TTITLE7=Chipmunk Song
TTITLE8=Blue Christmas
TTITLE9=Reindeer Rag
TTITLE10=Jesu, Joy of Man's Desiring
TTITLE11=Have Yourself a Merry Little Christmas
EXTD=
EXTT0=
EXTT1=
EXTT2=
EXTT3=
EXTT4=
EXTT5=
EXTT6=
EXTT7=
EXTT8=
EXTT9=
EXTT10=
EXTT11=
PLAYORDER=
